<svg width="180" height="180" viewBox="0 0 180 180" fill="none" xmlns="http://www.w3.org/2000/svg">
<path d="M147.043 87.5749L142.471 50.4314L133.903 51.4861L133.906 51.4801L117.295 42.1317C115.523 41.1347 113.49 40.7009 111.465 40.8879L85.2363 43.3137C82.0122 43.6118 79.1311 45.4515 77.5045 48.2514L59.018 80.0705C57.6529 82.4199 58.7244 85.4332 61.2666 86.3933L62.0228 86.6787C63.4775 87.2282 64.9727 87.5464 66.4672 87.6708L64.1247 89.711L59.4384 93.794L46.1097 105.163C43.737 107.23 43.4906 110.827 45.5574 113.199L46.9095 114.748C49.5638 117.792 54.1837 118.108 57.2331 115.453L62.3272 121.296C63.9834 123.198 66.4099 124.039 68.7411 123.752C70.1421 123.58 71.5089 122.999 72.6505 122.001L77.739 127.844C79.4011 129.751 81.8273 130.587 84.1585 130.3C85.5594 130.127 86.9267 129.552 88.0685 128.554L90.8339 130.944C93.4889 133.993 98.114 134.308 101.163 131.653L104.923 128.374L136.527 103.76L136.561 103.729L149.03 103.716L147.043 87.5749Z" fill="#F29F5C"/>
<path d="M133.499 94.1594L133.465 94.1907L101.861 118.804L98.1014 122.084C95.0523 124.739 90.4268 124.424 87.7718 121.374L85.0064 118.985C83.8646 119.983 82.497 120.558 81.0964 120.73C78.7652 121.017 76.3394 120.182 74.6769 118.275L69.5884 112.431C68.4465 113.43 67.0796 114.01 65.679 114.183C63.3478 114.47 60.9213 113.629 59.2651 111.727L54.171 105.884C51.5603 108.157 47.8014 108.245 45.1074 106.315C43.7258 108.398 43.8362 111.222 45.5585 113.199L46.9106 114.748C49.5649 117.792 54.1847 118.108 57.2342 115.453L62.3283 121.296C63.9845 123.198 66.411 124.039 68.7422 123.752C70.1431 123.58 71.5097 122.999 72.6515 122.001L77.74 127.844C79.4022 129.751 81.8283 130.587 84.1595 130.3C85.5605 130.127 86.9277 129.552 88.0696 128.554L90.835 130.944C93.49 133.993 98.1151 134.308 101.165 131.653L104.924 128.374L136.528 103.76L136.562 103.729L149.031 103.717L147.651 92.5103L133.499 94.1594Z" fill="#D37D42"/>
<path d="M139.254 110.226L122.321 95.6261L117.612 91.5691L114.243 88.6673L99.7559 76.1799L101.429 61.9381C101.995 57.1214 98.9627 52.6119 94.2884 51.3185L62.7094 42.5805C59.3682 41.6559 55.8367 43.2063 54.2561 46.2919L50.2849 54.0438L33.2384 52.8868L28.872 90.0553L26.9743 106.208L43.5673 107.311L43.6017 107.343L78.2663 137.223L82.0439 140.482C85.1077 143.12 89.7311 142.779 92.3692 139.715L97.4247 133.849C98.5718 134.841 99.9425 135.408 101.345 135.573C103.677 135.848 106.099 134.998 107.75 133.082L112.807 127.211C113.954 128.202 115.324 128.776 116.726 128.94C119.058 129.215 121.48 128.36 123.126 126.449L128.187 120.577C131.251 123.216 135.869 122.874 138.507 119.815L139.85 118.259C141.904 115.875 141.638 112.28 139.254 110.226Z" fill="#F9C295"/>
<path d="M139.254 110.226L134.096 105.779C135.772 108.002 135.738 111.164 133.846 113.36L132.42 115.012C129.62 118.259 124.718 118.622 121.465 115.821L116.092 122.054C114.345 124.082 111.774 124.989 109.298 124.699C107.809 124.524 106.355 123.915 105.137 122.862L99.7696 129.096C98.0163 131.129 95.4461 132.031 92.9697 131.74C91.4815 131.565 90.0264 130.962 88.8086 129.91L83.4416 136.137C82.4306 137.312 81.1428 138.103 79.7594 138.511L82.0442 140.482C85.1081 143.12 89.7314 142.779 92.3695 139.715L97.425 133.849C98.5721 134.841 99.9429 135.409 101.345 135.574C103.678 135.847 106.099 134.998 107.751 133.082L112.807 127.211C113.954 128.203 115.324 128.776 116.726 128.941C119.059 129.215 121.481 128.36 123.126 126.449L128.188 120.578C131.251 123.216 135.87 122.874 138.507 119.815L139.851 118.259C141.904 115.875 141.638 112.28 139.254 110.226Z" fill="#E59F6A"/>
<path d="M129.902 118.623L120.623 110.623C119.521 109.672 117.856 109.795 116.905 110.898C115.954 112.001 116.077 113.666 117.18 114.617L126.442 122.603L128.188 120.578C128.884 121.178 129.664 121.616 130.48 121.91C131.082 120.839 130.869 119.456 129.902 118.623Z" fill="#E59F6A"/>
<path d="M115.067 128.54C115.702 127.463 115.499 126.053 114.518 125.208L106.183 118.021C105.08 117.071 103.416 117.194 102.464 118.297C101.513 119.399 101.637 121.064 102.74 122.015L111.074 129.202C111.078 129.204 111.081 129.207 111.085 129.21L112.807 127.21C113.493 127.804 114.261 128.244 115.067 128.54Z" fill="#E59F6A"/>
<path d="M44.4321 107.273L42.4236 109.926C40.2365 112.814 40.8046 116.928 43.6927 119.115C46.5808 121.302 50.6951 120.734 52.8825 117.846L54.891 115.194C57.078 112.306 56.5099 108.192 53.6219 106.004C50.7338 103.817 46.6191 104.385 44.4321 107.273Z" fill="#F29F5C"/>
<path d="M56.665 112.852L52.8826 117.846C50.6955 120.734 51.2636 124.849 54.1517 127.036C57.0398 129.223 61.1541 128.655 63.3415 125.767L67.1239 120.772C69.311 117.884 68.7429 113.77 65.8548 111.583C62.9664 109.396 58.8521 109.964 56.665 112.852Z" fill="#F29F5C"/>
<path d="M68.496 118.96L63.3411 125.767C61.154 128.655 61.7222 132.769 64.6102 134.957C67.4983 137.144 71.6126 136.576 73.8001 133.688L78.955 126.881C81.1421 123.993 80.5739 119.878 77.6859 117.691C74.7978 115.503 70.6835 116.072 68.496 118.96Z" fill="#F29F5C"/>
<path d="M79.2542 126.486L73.8001 133.688C71.613 136.576 72.1812 140.69 75.0692 142.878C77.9573 145.065 82.0716 144.496 84.259 141.608L89.7132 134.407C91.9002 131.519 91.3321 127.404 88.444 125.217C85.5556 123.03 81.4413 123.598 79.2542 126.486Z" fill="#F29F5C"/>
<path d="M133.906 51.4801L117.295 42.1317C115.523 41.1347 113.49 40.7009 111.465 40.8879L85.2363 43.3137C82.0122 43.6118 79.1311 45.4515 77.5045 48.2514L59.018 80.0705C57.6528 82.4203 58.7244 85.4332 61.2666 86.3933L62.0228 86.6787C68.7991 89.2381 76.4519 87.0602 80.865 81.3167L87.9479 72.0988C87.9479 72.0988 104.974 91.8119 123.719 68.7906" fill="#F29F5C"/>
<path d="M179.98 108.683L171.292 38.107C171.206 37.413 170.849 36.7813 170.298 36.351C169.746 35.9207 169.047 35.7273 168.353 35.8124L148.037 38.3134C142.76 38.9631 138.996 43.7844 139.646 49.0606L146.622 105.732C147.223 110.611 151.389 114.196 156.185 114.196C156.575 114.196 156.972 114.173 157.369 114.124L177.685 111.623C179.13 111.444 180.158 110.129 179.98 108.683Z" fill="#5C9CEE"/>
<path d="M179.98 108.683L179.026 100.936C178.594 101.571 177.903 102.024 177.081 102.126L155.785 104.747C155.368 104.799 154.953 104.824 154.543 104.824C150.957 104.824 147.708 102.91 145.911 99.958L146.622 105.732C147.222 110.611 151.389 114.196 156.184 114.196C156.575 114.196 156.971 114.172 157.369 114.123L177.685 111.622C179.13 111.445 180.158 110.129 179.98 108.683Z" fill="#3580D3"/>
<path d="M31.9633 38.3133L11.6473 35.8122C10.9523 35.7268 10.2537 35.9205 9.70247 36.3508C9.15122 36.7811 8.79368 37.4129 8.70825 38.1069L0.0201232 108.683C-0.157767 110.129 0.869846 111.445 2.31476 111.623L22.6308 114.124C23.0287 114.172 23.4243 114.196 23.8155 114.196C28.6108 114.196 32.7775 110.61 33.378 105.732L40.3544 49.0605C41.0041 43.7842 37.2399 38.9629 31.9633 38.3133Z" fill="#ED5575"/>
<path d="M0.0201133 108.683L0.973899 100.936C1.40632 101.571 2.09679 102.024 2.91874 102.126L24.2153 104.747C24.6322 104.799 25.0474 104.824 25.4573 104.824C29.0432 104.824 32.292 102.91 34.0892 99.958L33.3783 105.732C32.7779 110.611 28.6115 114.196 23.8159 114.196C23.4249 114.196 23.0287 114.172 22.6311 114.123L2.3151 111.622C0.869485 111.445 -0.157777 110.129 0.0201133 108.683Z" fill="#CC3A60"/>
<path d="M163.124 102.48C165.939 102.48 168.221 100.198 168.221 97.3828C168.221 94.5679 165.939 92.2859 163.124 92.2859C160.309 92.2859 158.027 94.5679 158.027 97.3828C158.027 100.198 160.309 102.48 163.124 102.48Z" fill="#EBEEF2"/>
<path d="M16.5902 102.48C19.4051 102.48 21.6871 100.198 21.6871 97.3828C21.6871 94.5679 19.4051 92.2859 16.5902 92.2859C13.7752 92.2859 11.4932 94.5679 11.4932 97.3828C11.4932 100.198 13.7752 102.48 16.5902 102.48Z" fill="#EBEEF2"/>
</svg>
