<svg width="46" height="46" viewBox="0 0 46 46" fill="none" xmlns="http://www.w3.org/2000/svg">
<path fill-rule="evenodd" clip-rule="evenodd" d="M25.9531 45.8122C37.2609 44.3628 46 34.702 46 23C46 10.2975 35.7025 0 23 0C10.2975 0 0 10.2975 0 23C0 34.244 8.06845 43.6035 18.7314 45.6047V26.335H14.7222V21.0557H18.7314V18.7646C18.7314 15.7432 19.5947 13.4023 21.3213 11.7422C23.0645 10.0654 25.4966 9.22705 28.6177 9.22705C29.6138 9.22705 30.834 9.39307 32.2783 9.7251L32.2036 15.3032C31.606 15.1538 30.8755 15.0791 30.0122 15.0791C27.3062 15.0791 25.9531 16.3491 25.9531 18.8892V21.0557H31.3071V26.335H25.9531V45.8122Z" fill="white"/>
</svg>

