<svg width="46" height="46" viewBox="0 0 46 46" fill="none" xmlns="http://www.w3.org/2000/svg">
<path fill-rule="evenodd" clip-rule="evenodd" d="M23 46C35.7025 46 46 35.7025 46 23C46 10.2975 35.7025 0 23 0C10.2975 0 0 10.2975 0 23C0 35.7025 10.2975 46 23 46ZM16 10C12.6863 10 10 12.6863 10 16V31C10 34.3137 12.6863 37 16 37H31C34.3137 37 37 34.3137 37 31V16C37 12.6863 34.3137 10 31 10H16ZM12 18C12 14.6863 14.6863 12 18 12H29C32.3137 12 35 14.6863 35 18V29C35 32.3137 32.3137 35 29 35H18C14.6863 35 12 32.3137 12 29V18ZM23.5 32C28.1944 32 32 28.1944 32 23.5C32 18.8056 28.1944 15 23.5 15C18.8056 15 15 18.8056 15 23.5C15 28.1944 18.8056 32 23.5 32ZM30 23.5C30 27.0899 27.0899 30 23.5 30C19.9101 30 17 27.0899 17 23.5C17 19.9101 19.9101 17 23.5 17C27.0899 17 30 19.9101 30 23.5ZM31.5 17C32.3284 17 33 16.3284 33 15.5C33 14.6716 32.3284 14 31.5 14C30.6716 14 30 14.6716 30 15.5C30 16.3284 30.6716 17 31.5 17Z" fill="white"/>
</svg>

